<svg xmlns="http://www.w3.org/2000/svg" viewBox="0 0 256 257"><defs><linearGradient id="a" x1="-.828%" x2="57.636%" y1="7.652%" y2="78.411%"><stop offset="0%" stop-color="#41D1FF"/><stop offset="100%" stop-color="#BD34FE"/></linearGradient><linearGradient id="b" x1="43.376%" x2="50.316%" y1="2.242%" y2="89.03%"><stop offset="0%" stop-color="#FFEA83"/><stop offset="8.333%" stop-color="#FFDD35"/><stop offset="100%" stop-color="#FFA800"/></linearGradient></defs><path fill="url(#a)" d="m255.153 37.938-117.26 208.744c-2.483 4.534-9.065 4.466-11.462-.12L.875 37.958c-2.717-5.01 1.371-10.98 7.159-10.196l120.385 16.28a6.537 6.537 0 0 0 1.854-.006l117.67-16.318c5.806-.805 9.918 5.01 7.18 10.028Z"/><path fill="url(#b)" d="m185.432.063-94.79 17.39a3.268 3.268 0 0 0-2.634 3.014l-5.474 92.456a3.268 3.268 0 0 0 3.997 3.378l26.033-5.722c2.318-.51 4.413 1.507 3.936 3.838l-7.745 38.65c-.495 2.474 1.782 4.59 4.199 3.78l16.087-5.346c2.426-.807 4.92 1.27 4.367 3.78l-11.698 52.844c-.732 3.307 3.676 5.167 5.427 2.34l1.313-2.143 72.516-144.72c1.215-2.423-.88-5.186-3.54-4.672l-26.8 5.078c-2.396.454-4.435-1.77-3.759-4.114l17.36-61.356c.677-2.39-1.37-4.643-3.784-4.16Z"/></svg>